SplineFontDB: 3.0
FontName: JonesGaramond
FullName: Jones Garamond
FamilyName: Jones Garamond
Weight: Regular
Copyright: Created by trashman with FontForge 2.0 (http://fontforge.sf.net)
UComments: "Scale samples by 1.1" 
Version: 001.000
ItalicAngle: 0
UnderlinePosition: -100
UnderlineWidth: 50
Ascent: 700
Descent: 300
LayerCount: 3
Layer: 0 0 "Back"  1
Layer: 1 0 "Fore"  0
Layer: 2 0 "backup"  0
NeedsXUIDChange: 1
XUID: [1021 658 797806517 16111641]
FSType: 0
OS2Version: 0
OS2_WeightWidthSlopeOnly: 0
OS2_UseTypoMetrics: 1
CreationTime: 1283410316
ModificationTime: 1283658340
OS2TypoAscent: 0
OS2TypoAOffset: 1
OS2TypoDescent: 0
OS2TypoDOffset: 1
OS2TypoLinegap: 90
OS2WinAscent: 0
OS2WinAOffset: 1
OS2WinDescent: 0
OS2WinDOffset: 1
HheadAscent: 0
HheadAOffset: 1
HheadDescent: 0
HheadDOffset: 1
MarkAttachClasses: 1
DEI: 91125
LangName: 1033 
Encoding: UnicodeBmp
UnicodeInterp: none
NameList: Adobe Glyph List
DisplaySize: -48
AntiAlias: 1
FitToEm: 1
WinInfo: 96 16 4
BeginPrivate: 10
BlueValues 23 [-12 0 381 393 668 668]
OtherBlues 11 [-242 -237]
BlueScale 8 0.039625
BlueFuzz 1 0
BlueShift 1 7
StdHW 4 [22]
StemSnapH 4 [22]
StdVW 4 [64]
StemSnapV 4 [64]
0 0 
EndPrivate
BeginChars: 65536 54

StartChar: a
Encoding: 97 97 0
Width: 402
VWidth: 0
Flags: W
HStem: -10 41<109.5 200.012 303 373.732> 362 23<160.885 237.586>
VStem: 46 71<39.2236 125.451> 55 70<269.973 325.745> 262 64<31.9702 50 58.1143 189 203.667 346.875>
DStem2: 151 175 163 152 0.946066 0.323974<-25.9365 109.549>
LayerCount: 3
Fore
SplineSet
220 385 m 4xd8
 323 385 326 332 326 239 c 2
 326 69 l 2
 326 41 333 31 346 31 c 0
 365 31 376 41 376 41 c 1
 384 22 l 1
 384 22 363 -10 323 -10 c 0
 283 -10 266 20 262 50 c 1
 233 31 187 -10 124 -10 c 0
 95 -10 46 8 46 66 c 0xe8
 46 129 99 157 151 175 c 0
 187 188 227 200 262 210 c 1
 262 278 l 2
 262 322 254 362 196 362 c 0
 164 362 137 335 125 311 c 0
 112 285 102 256 80 256 c 0
 65 256 55 272 55 284 c 0
 55 298 65 314 78 327 c 0
 112 364 169 385 220 385 c 4xd8
168 31 m 0
 216 31 262 75 262 75 c 1
 262 189 l 1
 262 189 192 166 163 152 c 0
 142 141 117 119 117 89 c 0
 117 47 139 31 168 31 c 0
EndSplineSet
Validated: 1
EndChar

StartChar: b
Encoding: 98 98 1
Width: 441
VWidth: 0
Flags: W
HStem: -9 26<179.497 278.08> 354 35<181.566 282.482> 648 20G<61.5556 126>
VStem: 62 64<54.3251 327.303 337 610.523> 343 71<102.798 289.326>
LayerCount: 3
Fore
SplineSet
62 564 m 2
 62 598 59 606 47 609 c 0
 38 611 18 616 18 616 c 1
 18 632 l 1
 116 668 l 1
 126 668 l 1
 126 337 l 1
 157 356 193 389 249 389 c 0
 357 389 414 302 414 200 c 0
 414 134 387 75 341 35 c 0
 311 9 271 -9 228 -9 c 0
 214 -9 198 -9 183 -6 c 0
 158 1 135 11 112 11 c 0
 92 11 80 -4 68 -4 c 0
 62 -4 62 0 62 7 c 2
 62 564 l 2
126 309 m 5
 126 105 l 2
 126 61 171 17 236 17 c 0
 302 17 343 96 343 185 c 0
 343 279 301 354 229 354 c 0
 165 354 126 309 126 309 c 5
EndSplineSet
Validated: 1
EndChar

StartChar: c
Encoding: 99 99 3
Width: 379
VWidth: 0
Flags: W
HStem: -12 46<154.828 278.602> 357 32<152.219 241.177>
VStem: 32 61<104.671 274.233>
LayerCount: 3
Fore
SplineSet
344 66 m 1
 344 66 295 -12 189 -12 c 0
 98 -12 32 61 32 172 c 0
 32 244 60 307 106 345 c 0
 137 370 176 389 226 389 c 4
 278 389 332 369 332 337 c 0
 332 312 312 303 301 303 c 0
 285 303 272 319 258 329 c 0
 236 345 227 357 195 357 c 0
 133 357 93 280 93 208 c 0
 93 113 135 34 222 34 c 0
 289 34 329 83 329 83 c 1
 344 66 l 1
EndSplineSet
Validated: 1
EndChar

StartChar: d
Encoding: 100 100 4
Width: 475
VWidth: 0
Flags: W
HStem: -9 30<170.551 271.415> 14 17<411.227 442> 367 22<175.534 271.207> 648 20G<338.5 399>
VStem: 24 73<95.6204 278.773> 335 64<32.7812 49 59.8227 324.526 347 607.109>
LayerCount: 3
Fore
SplineSet
199 -9 m 0xbc
 94 -9 24 89 24 189 c 0
 24 232 37 276 66 312 c 0
 105 361 166 389 227 389 c 0
 293 389 335 347 335 347 c 1
 335 584 l 2
 335 592 330 602 320 605 c 0
 302 611 290 614 290 614 c 1
 290 628 l 1
 387 668 l 1
 399 668 l 1
 399 39 l 2
 399 30 406 30 412 31 c 2
 442 37 l 1
 444 14 l 1x7c
 341 -8 l 1
 335 -8 l 1
 335 49 l 1
 335 49 285 -9 199 -9 c 0xbc
97 201 m 0
 97 126 125 21 228 21 c 0xbc
 291 21 335 84 335 84 c 1
 335 267 l 2
 335 335 264 367 227 367 c 0
 152 367 97 312 97 201 c 0
EndSplineSet
Validated: 1
EndChar

StartChar: e
Encoding: 101 101 5
Width: 383
VWidth: 0
Flags: W
HStem: -10 41<162.327 288.677> 253 22<105 290> 365 23<160.706 248.246>
VStem: 37 57<105.59 251.347> 290 62<275 324.196>
LayerCount: 3
Fore
SplineSet
37 182 m 0
 37 300 91 388 212 388 c 4
 248 388 284 373 307 352 c 0
 340 321 352 281 352 261 c 0
 352 254 350 253 342 253 c 2
 98 253 l 1
 98 253 94 236 94 207 c 0
 94 107 144 31 226 31 c 0
 281 31 312 52 341 72 c 1
 352 57 l 1
 318 25 276 -10 199 -10 c 0
 97 -10 37 76 37 182 c 0
105 275 m 1
 290 275 l 1
 286 364 216 365 202 365 c 0
 152 365 115 321 105 275 c 1
EndSplineSet
Validated: 1
EndChar

StartChar: f
Encoding: 102 102 6
Width: 273
VWidth: 0
Flags: W
HStem: -2 22<18 72.0815 173.746 240> 360 22<30 91 155 252> 634 34<203.324 267.32>
VStem: 91 64<29.4467 360 382 533.877>
LayerCount: 3
Fore
SplineSet
18 -2 m 1
 18 20 l 1
 55 20 91 26 91 72 c 2
 91 360 l 1
 30 360 l 1
 30 382 l 1
 91 382 l 1
 91 413 93 537 148 606 c 0
 177 641 222 668 266 668 c 0
 302 668 340 651 340 621 c 0
 340 601 329 594 316 594 c 0
 276 594 265 634 232 634 c 0
 174 634 155 534 155 468 c 2
 155 382 l 1
 252 382 l 1
 252 360 l 1
 155 360 l 1
 155 72 l 2
 155 23 191 21 240 20 c 1
 240 -2 l 1
 240 -2 179 0 124 0 c 0
 73 0 18 -2 18 -2 c 1
EndSplineSet
Validated: 1
EndChar

StartChar: g
Encoding: 103 103 7
Width: 402
VWidth: 0
Flags: HMW
HStem: -237 25<129.933 253.705> -40 60<117.561 294.267> 112 20<163.993 234.042> 366 23<151.62 231.312>
VStem: 8 62<-174.997 -97.3999> 58 53<30.2965 79.5116 174.598 335.075> 277 56<177.107 332.419> 331 47<-150.673 -66.3084>
LayerCount: 3
Fore
SplineSet
277 245 m 0xf2
 277 327 240 366 192 366 c 0
 146 366 110 331 110 256 c 0
 110 198 143 132 200 132 c 0
 256 132 277 183 277 245 c 0xf2
70 -132 m 0xfa
 70 -173 127 -212 190 -212 c 0
 218 -212 246 -205 270 -192 c 0
 306 -172 331 -138 331 -106 c 0xf9
 331 -67 312 -65 277 -58 c 0
 233 -50 174 -46 140 -40 c 1
 126 -53 70 -87 70 -132 c 0xfa
295 360 m 1
 313 360 350 376 372 376 c 0
 388 376 399 370 399 351 c 0
 399 338 387 333 377 333 c 0
 366 333 348 343 332 343 c 0
 326 343 320 342 315 338 c 1
 315 338 333 312 333 258 c 0
 333 178 278 112 193 112 c 0
 181 112 157 115 157 115 c 1
 157 115 111 96 111 59 c 0xf6
 111 26 154 23 191 20 c 0
 242 16 296 15 334 2 c 0
 364 -8 378 -40 378 -71 c 0
 378 -172 292 -237 180 -237 c 0
 100 -237 8 -214 8 -146 c 0xf9
 8 -102 49 -81 84 -57 c 2
 118 -34 l 1
 118 -34 58 -11 58 40 c 0xf4
 58 63 85 86 107 103 c 2
 134 123 l 1
 134 123 52 162 52 254 c 0
 52 328 111 389 192 389 c 0
 253 389 295 360 295 360 c 1
EndSplineSet
Validated: 1
EndChar

StartChar: h
Encoding: 104 104 8
Width: 471
VWidth: 0
Flags: W
HStem: -2 22<34 76.485 165.5 212 270 317.975 411.594 451> 355 30<205.252 292.991>
VStem: 88 64<25.6113 328.205 339 603.375> 336 64<28.3633 317.709>
LayerCount: 3
Fore
SplineSet
277 385 m 0
 387 385 400 319 400 199 c 2
 400 75 l 2
 400 34 408 22 451 20 c 1
 451 -2 l 1
 451 -2 418 0 363 0 c 0
 312 0 270 -2 270 -2 c 1
 270 20 l 1
 307 20 336 28 336 74 c 2
 336 214 l 2
 336 279 328 355 239 355 c 0
 191 355 152 308 152 308 c 1
 152 77 l 2
 152 29 168 20 212 20 c 1
 212 -2 l 1
 212 -2 176 0 121 0 c 0
 70 0 34 -2 34 -2 c 1
 34 20 l 1
 71 20 88 27 88 73 c 2
 88 558 l 2
 88 592 83 599 71 602 c 2
 43 610 l 1
 43 627 l 1
 141 666 l 1
 152 666 l 1
 152 339 l 1
 173 360 226 385 277 385 c 0
EndSplineSet
Validated: 1
EndChar

StartChar: i
Encoding: 105 105 9
Width: 234
VWidth: 0
Flags: W
HStem: -2 22<24 64.4295 167.434 208> 373 20G<97.6667 148> 552.26 75.4805<78.4942 148.328>
VStem: 75.25 76.5<555.883 624.117> 84 64<29.5549 324.578>
LayerCount: 3
Fore
SplineSet
75.25 590 m 0xf0
 75.25 611.419921875 91.5703125 627.740234375 112.990234375 627.740234375 c 0
 134.41015625 627.740234375 151.75 611.419921875 151.75 590 c 0
 151.75 568.580078125 134.41015625 552.259765625 112.990234375 552.259765625 c 0
 91.5703125 552.259765625 75.25 568.580078125 75.25 590 c 0xf0
148 393 m 1xe8
 148 82 l 2
 148 38 164 23 208 20 c 1
 208 -2 l 1
 208 -2 172 0 117 0 c 0
 66 0 24 -2 24 -2 c 1
 24 20 l 5
 60 21 84 33 84 79 c 2
 84 278 l 2
 84 312 81 316 68 322 c 2
 44 333 l 1
 44 345 l 1
 136 393 l 1
 148 393 l 1xe8
EndSplineSet
Validated: 1
EndChar

StartChar: j
Encoding: 106 106 10
Width: 238
VWidth: 0
Flags: W
HStem: 373 20G<90.3902 158> 552 76<68.745 138.062>
VStem: 65 77<556.155 623.845> 94 64<-125.562 320>
LayerCount: 3
Fore
SplineSet
65 590 m 0xe0
 65 611 82 628 103 628 c 0
 124 628 142 611 142 590 c 0
 142 569 124 552 103 552 c 0
 82 552 65 569 65 590 c 0xe0
94 -43 m 2xd0
 94 274 l 2
 94 308 92 313 78 318 c 2
 32 334 l 1
 32 352 l 1
 146 393 l 1
 158 393 l 1
 158 -31 l 2
 158 -182 21 -232 21 -232 c 1
 8 -208 l 1
 25 -199 l 0
 59 -181 94 -149 94 -43 c 2xd0
EndSplineSet
Validated: 1
EndChar

StartChar: k
Encoding: 107 107 11
Width: 479
VWidth: 0
Flags: W
HStem: -2 22<28 69.4309 171.327 207 265 306.048 424.071 454> 361 22<264 294.647 386.65 422>
VStem: 88 64<28.7618 169 198 602.25>
DStem2: 152 198 152 169 0.769562 0.638572<0 21.9407 82.5068 200.574> 231 232 183 195 0.6576 -0.753367<0 194.799>
LayerCount: 3
Fore
SplineSet
152 169 m 1
 152 77 l 2
 152 47 163 22 207 20 c 1
 207 -2 l 1
 207 -2 176 0 121 0 c 0
 70 0 28 -2 28 -2 c 1
 28 20 l 1
 69 24 88 32 88 78 c 2
 88 557 l 2
 88 591 83 598 71 601 c 2
 40 609 l 1
 40 626 l 1
 141 666 l 1
 152 666 l 1
 152 198 l 1
 267 297 l 2
 284 311 300 325 300 339 c 0
 300 350 290 356 264 361 c 1
 264 383 l 5
 264 383 312 381 345 381 c 0
 373 381 422 383 422 383 c 1
 422 361 l 1
 385 352 366 342 340 325 c 1
 231 232 l 1
 274 186 315 137 359 91 c 0
 388 62 423 20 454 20 c 1
 454 -2 l 1
 454 -2 418 0 363 0 c 0
 312 0 265 -2 265 -2 c 1
 265 20 l 1
 290 20 310 25 310 42 c 0
 310 50 298 63 286 77 c 2
 183 195 l 1
 152 169 l 1
EndSplineSet
Validated: 1
EndChar

StartChar: l
Encoding: 108 108 12
Width: 239
VWidth: 0
Flags: W
HStem: -2 22<26 68.2444 170.789 210>
VStem: 88 64<29.7511 605.625>
LayerCount: 3
Fore
SplineSet
152 666 m 1
 152 79 l 2
 152 46 160 24 210 20 c 1
 210 -2 l 1
 210 -2 176 0 121 0 c 0
 70 0 26 -2 26 -2 c 1
 26 20 l 1
 67 24 88 32 88 78 c 2
 88 557 l 2
 88 591 86 600 72 604 c 2
 43 612 l 1
 43 626 l 1
 141 666 l 1
 152 666 l 1
EndSplineSet
Validated: 1
EndChar

StartChar: m
Encoding: 109 109 13
Width: 712
VWidth: 0
Flags: W
HStem: -2 22<21 66.3726 156.5 203 266 311.358 402.933 444 511 557.928 652.925 689> 351 34<199.743 297.893 443.829 540.492> 373 20G<95.4 140>
VStem: 79 64<25.6113 324.422> 327 64<26.7346 323.62> 575 64<27.7188 321.141>
CounterMasks: 1 1c
LayerCount: 3
Fore
SplineSet
140 334 m 1xbc
 175 355 216 385 268 385 c 0
 330 385 364 366 380 327 c 1
 411 351 457 385 516 385 c 0
 626 385 639 319 639 199 c 2
 639 82 l 2
 639 41 645 22 689 20 c 1
 689 -2 l 1
 689 -2 657 0 602 0 c 0
 551 0 511 -2 511 -2 c 1
 511 20 l 1
 548 20 575 28 575 74 c 2
 575 204 l 2
 575 269 575 351 489 351 c 0
 441 351 395 312 387 305 c 1
 390 278 391 240 391 199 c 2
 391 77 l 2
 391 36 395 24 444 20 c 1
 444 -2 l 1
 444 -2 409 0 354 0 c 0
 303 0 266 -2 266 -2 c 1
 266 20 l 1
 303 20 327 28 327 74 c 2
 327 238 l 2
 327 302.115433656 316.986822373 351 241 351 c 0xdc
 190 351 143 308 143 308 c 1
 143 77 l 2
 143 29 159 20 203 20 c 1
 203 -2 l 1
 203 -2 167 0 112 0 c 0
 61 0 21 -2 21 -2 c 1
 21 20 l 1
 60 20 79 27 79 73 c 2
 79 281 l 2
 79 315 77 321 63 325 c 6
 42 331 l 5
 42 343 l 1
 131 393 l 1
 140 393 l 1
 140 334 l 1xbc
EndSplineSet
Validated: 1
EndChar

StartChar: n
Encoding: 110 110 14
Width: 465
VWidth: 0
Flags: W
HStem: -2 22<21 65.6722 158.748 202 263 309.928 406.967 442> 355 35<200.023 295.287>
VStem: 79 64<26.9609 324.46> 327 64<27.7188 328.25>
LayerCount: 3
Fore
SplineSet
140 337 m 1
 169 357 217 390 268 390 c 0
 309 390 339 375 359 353 c 0
 388 321 391 283 391 236 c 2
 391 75 l 2
 391 39 399 26 442 20 c 1
 442 -2 l 1
 442 -2 409 0 354 0 c 0
 303 0 263 -2 263 -2 c 1
 263 20 l 1
 300 20 327 28 327 74 c 2
 327 258 l 2
 327 316 301 355 238 355 c 0
 196 355 165 331 143 313 c 1
 143 82 l 2
 143 34 158 20 202 20 c 1
 202 -2 l 1
 202 -2 167 0 112 0 c 0
 61 0 21 -2 21 -2 c 1
 21 20 l 1
 58 20 79 27 79 73 c 2
 79 278 l 2
 79 312 76 315 63 322 c 2
 39 335 l 1
 39 347 l 1
 131 393 l 1
 140 393 l 1
 140 337 l 1
EndSplineSet
Validated: 1
EndChar

StartChar: o
Encoding: 111 111 15
Width: 446
VWidth: 0
Flags: W
HStem: -9 25<171.766 266.82> 365 22<176.459 265.036>
VStem: 28 72<87.3129 290.109> 338 73<90.7299 294.885>
LayerCount: 3
Fore
SplineSet
220 387 m 0
 333 387 411 326 411 189 c 0
 411 61 325 -9 217 -9 c 0
 103 -9 28 62 28 190 c 0
 28 320 113 387 220 387 c 0
100 179 m 0
 100 103 141 16 217 16 c 0
 315 16 338 116 338 203 c 0
 338 279 300 365 222 365 c 0
 130 365 100 267 100 179 c 0
EndSplineSet
Validated: 1
EndChar

StartChar: p
Encoding: 112 112 16
Width: 457
VWidth: 0
Flags: W
HStem: -242 22<0 54.4196 156.501 205> -9 21<200.904 290.039> 354 31<196.622 291.584> 373 20G<89.9216 132>
VStem: 71 64<-209.146 24 53.8451 317.811> 370 61<97.4991 276.646>
LayerCount: 3
Fore
SplineSet
132 323 m 1xdc
 153 343 201 385 256 385 c 0xec
 369 385 431 300 431 192 c 0
 431 84 355 -9 237 -9 c 0
 190 -9 157 11 135 24 c 1
 135 -163 l 2
 135 -198 142 -214 205 -220 c 1
 205 -242 l 1
 205 -242 159 -240 104 -240 c 0
 53 -240 0 -242 0 -242 c 1
 0 -220 l 1
 67 -212 71 -208 71 -162 c 2
 71 278 l 2
 71 312 70 316 55 322 c 2
 34 331 l 1
 34 342 l 1
 126 393 l 1
 132 393 l 1
 132 323 l 1xdc
135 95 m 2
 135 65 184 12 249 12 c 0
 324 12 370 95 370 184 c 0
 370 281 310 354 238 354 c 0
 174 354 135 293 135 293 c 1
 135 95 l 2
EndSplineSet
Validated: 1
EndChar

StartChar: q
Encoding: 113 113 17
Width: 457
VWidth: 0
Flags: W
HStem: -242 22<243 307.982 400.368 442> -9 26<186.643 278.434> 363 23<164.269 262.872>
VStem: 21 62<111.743 280.688> 321 64<-211.792 24 32.4083 328.491>
LayerCount: 3
Fore
SplineSet
321 24 m 1
 298 10 259 -9 209 -9 c 0
 94 -9 21 86 21 192 c 0
 21 300 105 386 223 386 c 0
 277 386 320 357 339 357 c 0
 349 357 355 364 369 375 c 0
 373 378 375 379 381 379 c 0
 384 379 385 375 385 362 c 2
 385 -162 l 2
 385 -208 393 -212 442 -220 c 1
 442 -242 l 1
 442 -242 403 -240 352 -240 c 0
 297 -240 243 -242 243 -242 c 1
 243 -220 l 1
 291 -215 321 -222 321 -174 c 2
 321 24 l 1
321 307 m 1
 321 307 280 363 211 363 c 0
 138 363 83 289 83 200 c 0
 83 106 154 17 238 17 c 0
 298 17 321 51 321 51 c 1
 321 307 l 1
EndSplineSet
Validated: 1
EndChar

StartChar: r
Encoding: 114 114 18
Width: 305
VWidth: 0
Flags: W
HStem: -2 22<26 65.5697 171.638 214> 322 66<205.159 293.286>
VStem: 84 64<31.9035 315.457>
LayerCount: 3
Fore
SplineSet
296 359 m 0
 296 332 277 322 247 322 c 0
 228 322 214 324 200 324 c 0
 168 324 148 301 148 277 c 2
 148 82 l 2
 148 38 168 24 214 20 c 1
 214 -2 l 1
 214 -2 172 0 117 0 c 0
 66 0 26 -2 26 -2 c 1
 26 20 l 1
 62 21 84 33 84 79 c 2
 84 278 l 2
 84 312 83 318 69 325 c 2
 47 336 l 1
 47 348 l 1
 131 393 l 1
 145 393 l 1
 145 325 l 1
 160 335 221 388 266 388 c 0
 284 388 296 377 296 359 c 0
EndSplineSet
Validated: 1
EndChar

StartChar: s
Encoding: 115 115 19
Width: 315
VWidth: 0
Flags: W
HStem: -12 26<105.973 191.265> 363 23<127.074 197.638>
VStem: 42 20<66.0013 100.996> 49 53<258.347 344.01> 220 57<40.8676 130.804>
LayerCount: 3
Fore
SplineSet
145 -12 m 0xd8
 73 -12 42 30 34 44 c 1
 42 87 l 2
 44 97 49 101 52 101 c 0
 57 101 60 96 62 90 c 0xe8
 74 49 101 14 152 14 c 0
 194 14 220 48 220 83 c 0
 220 114 201 132 178 147 c 0
 139 172 140 169 98 198 c 0
 71 217 49 237 49 291 c 0
 49 337 96 386 173 386 c 0
 212 386 239 377 254 363 c 1
 258 303 l 2
 259 290 255 290 251 290 c 0
 246 290 233 314 226 323 c 0
 212 342 193 363 162 363 c 0
 126 363 102 333 102 299 c 0
 102 255 172 227 222 195 c 0
 252 175 277 155 277 106 c 0
 277 33 211 -12 145 -12 c 0xd8
EndSplineSet
Validated: 1
EndChar

StartChar: t
Encoding: 116 116 20
Width: 303
VWidth: 0
Flags: W
HStem: -9 34<164.848 252.534> 360 22<149 279>
VStem: 85 64<35.8936 360>
LayerCount: 3
Fore
SplineSet
202 25 m 0
 216 25 227 26 238 29 c 2
 269 37 l 1
 275 20 l 1
 257 7 214 -9 187 -9 c 0
 107 -9 85 38 85 109 c 2
 85 360 l 1
 58 360 l 2
 46 360 40 361 40 366 c 0
 40 373 42 377 56 386 c 0
 86 405 113 436 132 464 c 0
 137 471 141 473 146 473 c 0
 152 473 152 468 152 459 c 2
 149 382 l 1
 279 382 l 1
 279 360 l 1
 149 360 l 1
 149 137 l 2
 149 66 153 25 202 25 c 0
EndSplineSet
Validated: 1
EndChar

StartChar: u
Encoding: 117 117 21
Width: 475
VWidth: 0
Flags: W
HStem: -11 36<172.257 262.333> 361 22<21 57.0198 273 313.177>
VStem: 70 64<60.2378 354.187> 326 64<35.5938 51 59.5048 353.448>
DStem2: 403 34 437 17 0.972806 0.231621<-8.31807 29.1379>
LayerCount: 3
Fore
SplineSet
70 123 m 2
 70 329 l 2
 70 351.213937138 45 356 21 361 c 1
 21 383 l 1
 21 383 69 381 96 381 c 0
 112 381 134 383 134 383 c 1
 134 127 l 2
 134 65 173 25 225 25 c 0
 276 25 326 79 326 79 c 1
 326 320 l 2
 326 342 320.622155806 346.948565976 311 351 c 0
 292 359 273 362 273 362 c 1
 273 384 l 1
 273 384 326 382 352 382 c 0
 371 382 390 384 390 384 c 1
 390 42 l 2
 390 33 397 33 403 34 c 2
 435 40 l 1
 437 17 l 1
 332 -8 l 1
 326 -8 l 1
 326 51 l 1
 298 20 241 -11 192 -11 c 0
 107 -11 70 45 70 123 c 2
EndSplineSet
Validated: 1
Layer: 2
SplineSet
70 123 m 2
 70 334 l 2
 70 342 65 352 55 355 c 0
 37 361 26 364 26 364 c 1
 26 382 l 1
 134 382 l 1
 134 127 l 2
 134 65 168 23 225 23 c 0
 274 23 318 74 318 74 c 1
 318 334 l 2
 318 342 313 352 303 355 c 0
 285 361 269 364 269 364 c 1
 269 382 l 1
 382 382 l 1
 382 39 l 2
 382 30 389 30 395 31 c 2
 425 37 l 1
 427 14 l 1
 324 -8 l 1
 318 -8 l 1
 318 46 l 1
 280 12 241 -12 192 -12 c 0
 107 -12 70 51 70 123 c 2
EndSplineSet
EndChar

StartChar: v
Encoding: 118 118 22
Width: 466
VWidth: 0
Flags: W
HStem: -11 21G<227.5 240> 361 22<30 61.0505 165.288 194 316 353.654 408.735 443>
DStem2: 169 293 143 180 0.396504 -0.918033<-40.2105 228.994> 258 82 278 70 0.401432 0.915889<0 269.056>
LayerCount: 3
Fore
SplineSet
30 361 m 1
 30 383 l 1
 30 383 80 381 108 381 c 0
 137 381 194 383 194 383 c 1
 194 361 l 1
 168 359 159 348 159 333 c 0
 159 322 163 309 169 293 c 0
 190 237 234 135 258 82 c 1
 309 196 l 2
 334 253 358 311 358 333 c 0
 358 361 338 360 316 361 c 1
 316 383 l 1
 316 383 359 381 384 381 c 0
 408 381 443 383 443 383 c 1
 443 361 l 1
 412 359 401 351 381 305 c 2
 278 70 l 2
 258 24 245 -11 235 -11 c 2
 233 -11 l 2
 222 -11 225 -10 190 70 c 2
 143 180 l 2
 103 276 97 290 79 327 c 0
 71 343 63 356 30 361 c 1
EndSplineSet
Validated: 1
EndChar

StartChar: w
Encoding: 119 119 23
Width: 632
VWidth: 0
Flags: W
HStem: -11 21G<189.5 202 409.5 422> 361 22<19 43.2114 145.157 179 232 263.198 362.598 405 483 522.547 575.866 601>
DStem2: 223 90 229 53 0.39164 0.920118<0 180.235> 363 293 300 276 0.357717 -0.93383<-40.4464 15.5504 23.7788 214.31> 440 93 449 53 0.375193 0.926947<0 254.498>
LayerCount: 3
Fore
SplineSet
232 361 m 1
 232 383 l 1
 232 383 284 381 312 381 c 0
 341 381 405 383 405 383 c 1
 405 361 l 1
 379 359 353 353 353 333 c 0
 353 322 357 309 363 293 c 0
 384 237 416 146 440 93 c 1
 481 196 l 2
 502 254 528 311 528 333 c 0
 528 360 505 360 483 361 c 1
 483 383 l 1
 483 383 528 381 553 381 c 0
 577 381 601 383 601 383 c 1
 601 361 l 1
 576 354 570.368241598 352.85094983 551 305 c 2
 449 53 l 2
 430 6 427 -11 417 -11 c 2
 415 -11 l 2
 404 -11 403 -2 374 80 c 0
 358.551759947 123.681230495 333.90625 191.7734375 312 248 c 1
 229 53 l 2
 209 6 207 -11 197 -11 c 2
 195 -11 l 2
 184 -11 185.540039062 -1.439453125 155 80 c 0
 128 152 70.5283203125 299.19140625 57 327 c 0
 49 343 45 357 19 361 c 1
 19 383 l 1
 19 383 64 381 92 381 c 0
 121 381 179 383 179 383 c 1
 179 361 l 1
 153 359 135 348 135 333 c 0
 135 322 139.366377283 309.132646872 145 293 c 0
 167 230 199 146 223 90 c 1
 249 153 277.505859375 217.056640625 300 276 c 1
 292.958007812 293.510742188 282.20703125 321.40625 279 328 c 0
 271 344 264 358 232 361 c 1
EndSplineSet
Validated: 524289
EndChar

StartChar: x
Encoding: 120 120 24
Width: 422
VWidth: 0
Flags: HWO
HStem: -2 22<20 61.0553 114.888 150 233 271.866 370.125 394> 361 22<23 53.929 152.358 184 250 292.361 344.638 379>
DStem2: 182 180 196 162 0.601577 0.798815<-152.715 -5.9566 64.9999 196.361> 221 232 182 180 0.579803 -0.814756<-129.671 0 22.7829 26.0264 42.5379 188.277>
LayerCount: 3
Fore
SplineSet
262 361 m 2
 250 361 l 1
 250 383 l 1
 250 383 277 381 319 381 c 0
 347 381 379 383 379 383 c 1
 379 361 l 1
 364 357 346 361 318 324 c 2
 235 214 l 1
 274 158 310 103 350 51 c 0
 361 36 378 23 394 20 c 1
 394 -2 l 1
 394 -2 348 0 315 0 c 0
 280 0 233 -2 233 -2 c 1
 233 20 l 1
 242 20 274 20 274 38 c 0
 274 51 252 81 241 97 c 2
 196 162 l 1
 177 136 113 55 113 40 c 0
 113 22 129 20 150 20 c 1
 150 -2 l 1
 150 -2 114 0 76 0 c 0
 41 0 20 -2 20 -2 c 1
 20 20 l 1
 39 22 45 23 60 30 c 0
 82 40 137 122 182 180 c 1
 88 312 l 2
 71 336 52 361 23 361 c 1
 23 383 l 1
 23 383 62 381 98 381 c 0
 140 381 184 383 184 383 c 1
 184 361 l 1
 175 361 l 2
 165 361 151 359 151 342 c 0
 151 330 221 232 221 232 c 1
 221 232 267 290 287 320 c 0
 292 328 295 335 295 341 c 0
 295 354 282 361 262 361 c 2
EndSplineSet
Validated: 1
EndChar

StartChar: y
Encoding: 121 121 25
Width: 466
VWidth: 0
Flags: W
HStem: -242 67<67.7697 152.117> 361 22<19 50.864 157.587 192 304 343.269 396.962 431>
DStem2: 159 293 70 327 0.434247 -0.900794<-40.775 233.492> 196 -90 217 -104 0.352377 0.935858<-79.3171 93.4949 183.167 448.564>
LayerCount: 3
Fore
SplineSet
191 76 m 2
 70 327 l 2
 62 343 52 356 19 361 c 1
 19 383 l 1
 19 383 71 381 99 381 c 0
 128 381 192 383 192 383 c 1
 192 361 l 1
 166 359 147 348 147 333 c 0
 147 322 153 309 159 293 c 0
 180 237 233 136 259 82 c 1
 304 196 l 2
 328 256 348 314 348 333 c 0
 348 361 326 360 304 361 c 1
 304 383 l 1
 304 383 343 381 368 381 c 0
 392 381 431 383 431 383 c 1
 431 361 l 1
 400 359 389 352 371 305 c 2
 280 70 l 2
 271 48 235 -56 217 -104 c 0
 197 -157 164 -242 102 -242 c 0
 90 -242 64 -239 64 -211 c 0
 64 -189 84 -180 107 -175 c 0
 128 -170 149 -173 159 -162 c 0
 175 -143 186 -115 196 -90 c 0
 213 -46 223 -5 223 0 c 0
 223 8 197 63 191 76 c 2
EndSplineSet
Validated: 1
EndChar

StartChar: z
Encoding: 122 122 26
Width: 421
VWidth: 0
Flags: W
HStem: 0 22<124 300.271> 359 22<128.277 269>
VStem: 46 17<277 291.188> 368 16<93.8206 105>
DStem2: 42 13 124 22 0.54583 0.837896<52.2991 413.815>
LayerCount: 3
Fore
SplineSet
360 0 m 1
 42 0 l 1
 42 13 l 1
 269 359 l 1
 189 359 l 2
 148 359 135 353 121 344 c 0
 83 320 63 276 63 276 c 1
 46 277 l 1
 71 381 l 1
 352 381 l 1
 352 372 l 1
 124 22 l 1
 222 22 l 2
 288 22 312 35 332 53 c 0
 344 64 368 107 368 107 c 1
 384 105 l 1
 360 0 l 1
EndSplineSet
Validated: 1
EndChar

StartChar: period
Encoding: 46 46 53
Width: 370
VWidth: 0
Flags: W
HStem: -10 108<136.676 223.324>
VStem: 126 108<0.675964 87.324>
LayerCount: 3
Fore
SplineSet
126 44 m 0
 126 74 150 98 180 98 c 0
 210 98 234 74 234 44 c 0
 234 14 210 -10 180 -10 c 0
 150 -10 126 14 126 44 c 0
EndSplineSet
Validated: 1
EndChar
